<?xml version="1.0" encoding="UTF-8" standalone="no"?>
<svg
   version="1.1"
   id="Layer_1"
   x="0px"
   y="0px"
   width="100%"
   viewBox="0 0 1024 1024"
   enable-background="new 0 0 1024 1024"
   xml:space="preserve"
   sodipodi:docname="icon.svg"
   inkscape:version="1.3 (0e150ed6c4, 2023-07-21)"
   inkscape:export-filename="icon.png"
   inkscape:export-xdpi="96"
   inkscape:export-ydpi="96"
   xmlns:inkscape="http://www.inkscape.org/namespaces/inkscape"
   xmlns:sodipodi="http://sodipodi.sourceforge.net/DTD/sodipodi-0.dtd"
   xmlns="http://www.w3.org/2000/svg"
   xmlns:svg="http://www.w3.org/2000/svg"><defs
   id="defs5" /><sodipodi:namedview
   id="namedview5"
   pagecolor="#505050"
   bordercolor="#eeeeee"
   borderopacity="1"
   inkscape:showpageshadow="0"
   inkscape:pageopacity="0"
   inkscape:pagecheckerboard="0"
   inkscape:deskcolor="#505050"
   inkscape:zoom="0.53654489"
   inkscape:cx="511.60677"
   inkscape:cy="472.46746"
   inkscape:window-width="1920"
   inkscape:window-height="991"
   inkscape:window-x="-9"
   inkscape:window-y="-9"
   inkscape:window-maximized="1"
   inkscape:current-layer="Layer_1" />&#10;&#10;&#10;<rect
   style="fill:#e62020;stroke-width:4;stroke-linecap:round;stroke-linejoin:round;stroke-dasharray:16, 16"
   id="rect1"
   width="1024"
   height="1024"
   x="0"
   y="0"
   rx="512"
   ry="512" /><g
   id="g5"
   transform="matrix(1.3555006,0,0,1.3555006,-179.24031,-182.52873)"
   style="stroke-width:0.737735"><path
     fill="#fefaf3"
     opacity="1"
     stroke="none"
     d="m 286,610.9342 c -23.15546,4.9e-4 -45.81088,4.9e-4 -69.33264,4.9e-4 2.90622,-6.69891 5.64587,-12.8504 8.2556,-19.05658 13.80554,-32.83062 27.62897,-65.65399 41.28148,-98.54825 1.31402,-3.16598 3.17578,-3.51651 6.1148,-3.51217 50.65766,0.0746 101.31546,0.065 151.97324,0.0326 11.57928,-0.007 18.80737,-7.06354 18.47507,-18.58258 -0.0566,-1.95938 -2.59561,-4.25247 -4.53507,-5.60892 -1.28158,-0.89633 -3.5411,-0.50174 -5.36288,-0.50268 -49.49164,-0.0258 -98.98328,-0.028 -148.47492,-0.0341 -1.81695,-2.2e-4 -3.63388,-3e-5 -6.2724,-3e-5 1.35047,-3.21073 2.4842,-5.88721 3.60321,-8.56989 5.06186,-12.13513 10.21952,-24.23196 15.10828,-36.43649 1.21341,-3.02914 2.6174,-4.323 6.10281,-4.31668 73.32053,0.13275 146.6413,0.11407 219.96204,0.15857 12.13116,0.007 18.30463,8.93829 13.57471,20.20154 -8.8935,21.17791 -18.12201,42.21563 -27.27552,63.28369 -3.55108,8.17331 -10.23852,12.89624 -18.62286,16.06134 0.53714,0.7879 0.8974,1.47601 1.40265,2.03265 4.84705,5.34003 6.0658,11.32337 3.16534,17.99787 -8.7572,20.15203 -17.46652,40.3255 -26.34622,60.42352 -4.52585,10.24365 -12.76394,14.96057 -23.82297,14.96289 -52.82458,0.0109 -105.64916,0.01 -158.97375,0.0132 m 122.14179,-76.13433 c -4.47239,-0.0645 -8.9448,-0.18317 -13.41718,-0.18415 -19.39545,-0.004 -38.79089,0.0269 -58.18634,0.0424 -2.31882,0.002 -4.88477,-0.38397 -5.29388,3.7077 -2.84043,7.00959 -5.68085,14.01911 -8.74503,21.58094 25.95685,0 51.04974,0.1986 76.13098,-0.25043 3.14935,-0.0564 7.08972,-2.88165 9.13684,-5.58161 2.5156,-3.31793 3.60901,-7.79132 4.97543,-11.87945 1.1359,-3.39844 0.48752,-6.28162 -4.60082,-7.43536 z"
     id="path2"
     style="stroke-width:0.546665" /><path
     fill="#fefaf3"
     opacity="1"
     stroke="none"
     d="m 788.23059,468.30746 c -6.54089,15.54029 -12.91589,30.73508 -19.33459,45.91135 -4.72034,11.16089 -14.02747,17.23901 -26.17646,17.26691 -21.82592,0.0501 -43.65173,0.13287 -65.47754,0.22381 -1.57983,0.007 -3.15881,0.19013 -5.92663,0.3675 26.97418,26.42627 53.15863,52.07885 80.21435,78.58502 -2.89709,0.13794 -4.47961,0.27759 -6.06225,0.27899 -26.15906,0.0235 -52.32019,-0.1571 -78.47595,0.14093 -9.12726,0.104 -16.5188,-2.89502 -22.92029,-9.13965 -16.93225,-16.51745 -33.93347,-32.96429 -50.85248,-49.49524 -1.17401,-1.14709 -1.89764,-2.75518 -3.55133,-5.22522 -3.98303,9.37805 -7.23798,16.96405 -10.43036,24.5763 -4.95581,11.81713 -9.79535,23.68408 -14.89099,35.4403 -0.65741,1.51673 -2.539,3.56012 -3.86884,3.57148 -24.97003,0.21368 -49.94232,0.15716 -75.59118,0.15716 2.37579,-5.69617 4.5227,-10.86908 6.68918,-16.03381 14.0964,-33.60455 28.26712,-67.17841 42.18881,-100.8552 1.4068,-3.40292 3.10364,-4.27877 6.52667,-4.27053 49.81866,0.12005 99.63757,0.11486 149.45648,0.13174 11.30066,0.004 18.89209,-7.64111 18.05023,-18.85101 -0.14904,-1.9845 -2.734,-4.24329 -4.74487,-5.47986 -1.49438,-0.91898 -3.87951,-0.49133 -5.8678,-0.49051 -47.65289,0.0198 -95.30572,0.0631 -142.95862,0.10175 -2.28546,0.002 -4.57092,2.1e-4 -7.64965,2.1e-4 4.61474,-10.98538 8.92273,-21.22482 13.21679,-31.47009 1.80115,-4.29755 3.89923,-8.50745 5.25879,-12.9422 1.17865,-3.8447 3.11157,-4.98615 7.13361,-4.96753 37.98822,0.17602 75.9776,0.11215 113.96661,0.1181 33.65692,0.005 67.31983,0.38626 100.9679,-0.15622 14.71594,-0.23727 18.8725,12.1911 14.4245,21.94559 -4.55652,9.99246 -8.79132,20.13159 -13.31409,30.55993 z"
     id="path3"
     style="stroke-width:0.546665" /></g>&#10;&#10;&#10;</svg>
